<svg width="281" height="192" viewBox="0 0 281 192" fill="none" xmlns="http://www.w3.org/2000/svg">
<path d="M10.8935 166.273V175H9.83665V167.381H9.78551L7.65483 168.795V167.722L9.83665 166.273H10.8935ZM16.25 175.119C15.608 175.119 15.0611 174.945 14.6094 174.595C14.1577 174.243 13.8125 173.733 13.5739 173.065C13.3352 172.395 13.2159 171.585 13.2159 170.636C13.2159 169.693 13.3352 168.888 13.5739 168.22C13.8153 167.55 14.1619 167.038 14.6136 166.686C15.0682 166.331 15.6136 166.153 16.25 166.153C16.8864 166.153 17.4304 166.331 17.8821 166.686C18.3366 167.038 18.6832 167.55 18.9219 168.22C19.1634 168.888 19.2841 169.693 19.2841 170.636C19.2841 171.585 19.1648 172.395 18.9261 173.065C18.6875 173.733 18.3423 174.243 17.8906 174.595C17.4389 174.945 16.892 175.119 16.25 175.119ZM16.25 174.182C16.8864 174.182 17.3807 173.875 17.733 173.261C18.0852 172.648 18.2614 171.773 18.2614 170.636C18.2614 169.881 18.1804 169.237 18.0185 168.706C17.8594 168.175 17.6293 167.77 17.3281 167.491C17.0298 167.213 16.6705 167.074 16.25 167.074C15.6193 167.074 15.1264 167.385 14.7713 168.007C14.4162 168.626 14.2386 169.503 14.2386 170.636C14.2386 171.392 14.3182 172.034 14.4773 172.562C14.6364 173.091 14.8651 173.493 15.1634 173.768C15.4645 174.044 15.8267 174.182 16.25 174.182Z" fill="#4F4F4F"/>
<path d="M6.13778 144V143.233L9.01847 140.08C9.35653 139.71 9.63494 139.389 9.85369 139.116C10.0724 138.841 10.2344 138.582 10.3395 138.341C10.4474 138.097 10.5014 137.841 10.5014 137.574C10.5014 137.267 10.4276 137.001 10.2798 136.777C10.1349 136.553 9.93608 136.379 9.68324 136.257C9.4304 136.135 9.14631 136.074 8.83097 136.074C8.49574 136.074 8.20312 136.143 7.95312 136.283C7.70597 136.419 7.5142 136.611 7.37784 136.858C7.24432 137.105 7.17756 137.395 7.17756 137.727H6.17188C6.17188 137.216 6.28977 136.767 6.52557 136.381C6.76136 135.994 7.08239 135.693 7.48864 135.477C7.89773 135.261 8.35653 135.153 8.86506 135.153C9.37642 135.153 9.82955 135.261 10.2244 135.477C10.6193 135.693 10.929 135.984 11.1534 136.351C11.3778 136.717 11.4901 137.125 11.4901 137.574C11.4901 137.895 11.4318 138.209 11.3153 138.516C11.2017 138.82 11.0028 139.159 10.7188 139.534C10.4375 139.906 10.0469 140.361 9.54688 140.898L7.58665 142.994V143.062H11.6435V144H6.13778ZM16.25 144.119C15.608 144.119 15.0611 143.945 14.6094 143.595C14.1577 143.243 13.8125 142.733 13.5739 142.065C13.3352 141.395 13.2159 140.585 13.2159 139.636C13.2159 138.693 13.3352 137.888 13.5739 137.22C13.8153 136.55 14.1619 136.038 14.6136 135.686C15.0682 135.331 15.6136 135.153 16.25 135.153C16.8864 135.153 17.4304 135.331 17.8821 135.686C18.3366 136.038 18.6832 136.55 18.9219 137.22C19.1634 137.888 19.2841 138.693 19.2841 139.636C19.2841 140.585 19.1648 141.395 18.9261 142.065C18.6875 142.733 18.3423 143.243 17.8906 143.595C17.4389 143.945 16.892 144.119 16.25 144.119ZM16.25 143.182C16.8864 143.182 17.3807 142.875 17.733 142.261C18.0852 141.648 18.2614 140.773 18.2614 139.636C18.2614 138.881 18.1804 138.237 18.0185 137.706C17.8594 137.175 17.6293 136.77 17.3281 136.491C17.0298 136.213 16.6705 136.074 16.25 136.074C15.6193 136.074 15.1264 136.385 14.7713 137.007C14.4162 137.626 14.2386 138.503 14.2386 139.636C14.2386 140.392 14.3182 141.034 14.4773 141.562C14.6364 142.091 14.8651 142.493 15.1634 142.768C15.4645 143.044 15.8267 143.182 16.25 143.182Z" fill="#4F4F4F"/>
<path d="M5.49964 115.21V114.341L9.33487 108.273H9.96555V109.619H9.53942L6.64169 114.205V114.273H11.8065V115.21H5.49964ZM9.6076 117V114.946V114.541V108.273H10.6133V117H9.6076ZM16.25 117.119C15.608 117.119 15.0611 116.945 14.6094 116.595C14.1577 116.243 13.8125 115.733 13.5739 115.065C13.3352 114.395 13.2159 113.585 13.2159 112.636C13.2159 111.693 13.3352 110.888 13.5739 110.22C13.8153 109.55 14.1619 109.038 14.6136 108.686C15.0682 108.331 15.6136 108.153 16.25 108.153C16.8864 108.153 17.4304 108.331 17.8821 108.686C18.3366 109.038 18.6832 109.55 18.9219 110.22C19.1634 110.888 19.2841 111.693 19.2841 112.636C19.2841 113.585 19.1648 114.395 18.9261 115.065C18.6875 115.733 18.3423 116.243 17.8906 116.595C17.4389 116.945 16.892 117.119 16.25 117.119ZM16.25 116.182C16.8864 116.182 17.3807 115.875 17.733 115.261C18.0852 114.648 18.2614 113.773 18.2614 112.636C18.2614 111.881 18.1804 111.237 18.0185 110.706C17.8594 110.175 17.6293 109.77 17.3281 109.491C17.0298 109.213 16.6705 109.074 16.25 109.074C15.6193 109.074 15.1264 109.385 14.7713 110.007C14.4162 110.626 14.2386 111.503 14.2386 112.636C14.2386 113.392 14.3182 114.034 14.4773 114.562C14.6364 115.091 14.8651 115.493 15.1634 115.768C15.4645 116.044 15.8267 116.182 16.25 116.182Z" fill="#4F4F4F"/>
<path d="M8.81286 91.1193C8.4549 91.1136 8.09695 91.0455 7.73899 90.9148C7.38104 90.7841 7.05433 90.5639 6.75888 90.2543C6.46342 89.9418 6.22621 89.5199 6.04723 88.9886C5.86825 88.4545 5.77876 87.7841 5.77876 86.9773C5.77876 86.2045 5.85121 85.5199 5.99609 84.9233C6.14098 84.3239 6.35121 83.8196 6.62678 83.4105C6.90234 82.9986 7.23473 82.6861 7.62393 82.473C8.01598 82.2599 8.45774 82.1534 8.94922 82.1534C9.43786 82.1534 9.87251 82.2514 10.2532 82.4474C10.6367 82.6406 10.9492 82.9105 11.1907 83.2571C11.4322 83.6037 11.5884 84.0028 11.6594 84.4545H10.6197C10.5231 84.0625 10.3356 83.7372 10.0572 83.4787C9.77876 83.2202 9.40945 83.0909 8.94922 83.0909C8.27308 83.0909 7.74041 83.3849 7.35121 83.973C6.96484 84.5611 6.77024 85.3864 6.7674 86.4489H6.83558C6.99467 86.2074 7.18359 86.0014 7.40234 85.831C7.62393 85.6577 7.86825 85.5241 8.1353 85.4304C8.40234 85.3366 8.68501 85.2898 8.98331 85.2898C9.48331 85.2898 9.9407 85.4148 10.3555 85.6648C10.7702 85.9119 11.1026 86.2543 11.3526 86.6918C11.6026 87.1264 11.7276 87.625 11.7276 88.1875C11.7276 88.7273 11.6069 89.2216 11.3654 89.6705C11.1239 90.1165 10.7844 90.4716 10.3469 90.7358C9.91229 90.9972 9.40092 91.125 8.81286 91.1193ZM8.81286 90.1818C9.17081 90.1818 9.49183 90.0923 9.77592 89.9134C10.0629 89.7344 10.2887 89.4943 10.4535 89.1932C10.6211 88.892 10.7049 88.5568 10.7049 88.1875C10.7049 87.8267 10.6239 87.4986 10.462 87.2031C10.3029 86.9048 10.0827 86.6676 9.80149 86.4915C9.52308 86.3153 9.2049 86.2273 8.84695 86.2273C8.57706 86.2273 8.32564 86.2812 8.09268 86.3892C7.85973 86.4943 7.65518 86.6392 7.47905 86.8239C7.30575 87.0085 7.16939 87.2202 7.06996 87.4588C6.97053 87.6946 6.92081 87.9432 6.92081 88.2045C6.92081 88.5511 7.00178 88.875 7.16371 89.1761C7.32848 89.4773 7.55291 89.7202 7.837 89.9048C8.12393 90.0895 8.44922 90.1818 8.81286 90.1818ZM16.25 91.1193C15.608 91.1193 15.0611 90.9446 14.6094 90.5952C14.1577 90.2429 13.8125 89.733 13.5739 89.0653C13.3352 88.3949 13.2159 87.5852 13.2159 86.6364C13.2159 85.6932 13.3352 84.8878 13.5739 84.2202C13.8153 83.5497 14.1619 83.0384 14.6136 82.6861C15.0682 82.331 15.6136 82.1534 16.25 82.1534C16.8864 82.1534 17.4304 82.331 17.8821 82.6861C18.3366 83.0384 18.6832 83.5497 18.9219 84.2202C19.1634 84.8878 19.2841 85.6932 19.2841 86.6364C19.2841 87.5852 19.1648 88.3949 18.9261 89.0653C18.6875 89.733 18.3423 90.2429 17.8906 90.5952C17.4389 90.9446 16.892 91.1193 16.25 91.1193ZM16.25 90.1818C16.8864 90.1818 17.3807 89.875 17.733 89.2614C18.0852 88.6477 18.2614 87.7727 18.2614 86.6364C18.2614 85.8807 18.1804 85.2372 18.0185 84.706C17.8594 84.1747 17.6293 83.7699 17.3281 83.4915C17.0298 83.2131 16.6705 83.0739 16.25 83.0739C15.6193 83.0739 15.1264 83.3849 14.7713 84.0071C14.4162 84.6264 14.2386 85.5028 14.2386 86.6364C14.2386 87.392 14.3182 88.0341 14.4773 88.5625C14.6364 89.0909 14.8651 89.4929 15.1634 89.7685C15.4645 90.044 15.8267 90.1818 16.25 90.1818Z" fill="#4F4F4F"/>
<path d="M8.80433 63.1193C8.21911 63.1193 7.70206 63.0156 7.2532 62.8082C6.80717 62.598 6.45916 62.3097 6.20916 61.9432C5.95916 61.5739 5.83558 61.1534 5.83842 60.6818C5.83558 60.3125 5.90803 59.9716 6.05575 59.6591C6.20348 59.3437 6.40518 59.081 6.66087 58.8707C6.91939 58.6577 7.20774 58.5227 7.52592 58.4659V58.4148C7.10831 58.3068 6.77592 58.0724 6.52876 57.7116C6.28161 57.348 6.15945 56.9347 6.16229 56.4716C6.15945 56.0284 6.27166 55.6321 6.49893 55.2827C6.72621 54.9332 7.03871 54.6577 7.43643 54.456C7.837 54.2543 8.29297 54.1534 8.80433 54.1534C9.31001 54.1534 9.76172 54.2543 10.1594 54.456C10.5572 54.6577 10.8697 54.9332 11.0969 55.2827C11.3271 55.6321 11.4435 56.0284 11.4464 56.4716C11.4435 56.9347 11.3171 57.348 11.0671 57.7116C10.82 58.0724 10.4918 58.3068 10.0827 58.4148V58.4659C10.3981 58.5227 10.6822 58.6577 10.935 58.8707C11.1879 59.081 11.3896 59.3437 11.5401 59.6591C11.6907 59.9716 11.7674 60.3125 11.7702 60.6818C11.7674 61.1534 11.6396 61.5739 11.3867 61.9432C11.1367 62.3097 10.7887 62.598 10.3427 62.8082C9.8995 63.0156 9.38672 63.1193 8.80433 63.1193ZM8.80433 62.1818C9.19922 62.1818 9.54013 62.1179 9.82706 61.9901C10.114 61.8622 10.3356 61.6818 10.4918 61.4489C10.6481 61.2159 10.7276 60.9432 10.7305 60.6307C10.7276 60.3011 10.6424 60.0099 10.4748 59.7571C10.3072 59.5043 10.0785 59.3054 9.78871 59.1605C9.50178 59.0156 9.17365 58.9432 8.80433 58.9432C8.43217 58.9432 8.09979 59.0156 7.80717 59.1605C7.5174 59.3054 7.28871 59.5043 7.12109 59.7571C6.95632 60.0099 6.87536 60.3011 6.8782 60.6307C6.87536 60.9432 6.95064 61.2159 7.10405 61.4489C7.2603 61.6818 7.48331 61.8622 7.77308 61.9901C8.06286 62.1179 8.40661 62.1818 8.80433 62.1818ZM8.80433 58.0398C9.11683 58.0398 9.39382 57.9773 9.6353 57.8523C9.87962 57.7273 10.0714 57.5526 10.2106 57.3281C10.3498 57.1037 10.4208 56.8409 10.4237 56.5398C10.4208 56.2443 10.3512 55.9872 10.2148 55.7685C10.0785 55.5469 9.88956 55.3764 9.64808 55.2571C9.40661 55.1349 9.12536 55.0739 8.80433 55.0739C8.47763 55.0739 8.19212 55.1349 7.9478 55.2571C7.70348 55.3764 7.51456 55.5469 7.38104 55.7685C7.24751 55.9872 7.18217 56.2443 7.18501 56.5398C7.18217 56.8409 7.24893 57.1037 7.3853 57.3281C7.5245 57.5526 7.71626 57.7273 7.96058 57.8523C8.2049 57.9773 8.48615 58.0398 8.80433 58.0398ZM16.25 63.1193C15.608 63.1193 15.0611 62.9446 14.6094 62.5952C14.1577 62.2429 13.8125 61.733 13.5739 61.0653C13.3352 60.3949 13.2159 59.5852 13.2159 58.6364C13.2159 57.6932 13.3352 56.8878 13.5739 56.2202C13.8153 55.5497 14.1619 55.0384 14.6136 54.6861C15.0682 54.331 15.6136 54.1534 16.25 54.1534C16.8864 54.1534 17.4304 54.331 17.8821 54.6861C18.3366 55.0384 18.6832 55.5497 18.9219 56.2202C19.1634 56.8878 19.2841 57.6932 19.2841 58.6364C19.2841 59.5852 19.1648 60.3949 18.9261 61.0653C18.6875 61.733 18.3423 62.2429 17.8906 62.5952C17.4389 62.9446 16.892 63.1193 16.25 63.1193ZM16.25 62.1818C16.8864 62.1818 17.3807 61.875 17.733 61.2614C18.0852 60.6477 18.2614 59.7727 18.2614 58.6364C18.2614 57.8807 18.1804 57.2372 18.0185 56.706C17.8594 56.1747 17.6293 55.7699 17.3281 55.4915C17.0298 55.2131 16.6705 55.0739 16.25 55.0739C15.6193 55.0739 15.1264 55.3849 14.7713 56.0071C14.4162 56.6264 14.2386 57.5028 14.2386 58.6364C14.2386 59.392 14.3182 60.0341 14.4773 60.5625C14.6364 61.0909 14.8651 61.4929 15.1634 61.7685C15.4645 62.044 15.8267 62.1818 16.25 62.1818Z" fill="#4F4F4F"/>
<path d="M8.69354 27.1534C9.05149 27.1562 9.40945 27.2244 9.7674 27.358C10.1254 27.4915 10.4521 27.7131 10.7475 28.0227C11.043 28.3295 11.2802 28.7486 11.4592 29.2798C11.6381 29.8111 11.7276 30.4773 11.7276 31.2784C11.7276 32.054 11.6538 32.7429 11.506 33.3452C11.3612 33.9446 11.1509 34.4503 10.8754 34.8622C10.6026 35.2741 10.2702 35.5866 9.8782 35.7997C9.48899 36.0128 9.04865 36.1193 8.55717 36.1193C8.06854 36.1193 7.63246 36.0227 7.24893 35.8295C6.86825 35.6335 6.55575 35.3622 6.31143 35.0156C6.06996 34.6662 5.91513 34.2614 5.84695 33.8011H6.88672C6.98047 34.2017 7.16655 34.5327 7.44496 34.794C7.72621 35.0526 8.09695 35.1818 8.55717 35.1818C9.23047 35.1818 9.76172 34.8878 10.1509 34.2997C10.543 33.7116 10.739 32.8807 10.739 31.8068H10.6708C10.5117 32.0455 10.3228 32.2514 10.104 32.4247C9.8853 32.598 9.6424 32.7315 9.37536 32.8253C9.10831 32.919 8.82422 32.9659 8.52308 32.9659C8.02308 32.9659 7.56428 32.8423 7.14666 32.5952C6.73189 32.3452 6.3995 32.0028 6.1495 31.5682C5.90234 31.1307 5.77876 30.6307 5.77876 30.0682C5.77876 29.5341 5.89808 29.0455 6.13672 28.6023C6.3782 28.1562 6.71626 27.8011 7.15092 27.5369C7.58842 27.2727 8.10263 27.1449 8.69354 27.1534ZM8.69354 28.0909C8.33558 28.0909 8.01314 28.1804 7.72621 28.3594C7.44212 28.5355 7.21626 28.7741 7.04865 29.0753C6.88388 29.3736 6.80149 29.7045 6.80149 30.0682C6.80149 30.4318 6.88104 30.7628 7.04013 31.0611C7.20206 31.3565 7.42223 31.5923 7.70064 31.7685C7.98189 31.9418 8.30149 32.0284 8.65945 32.0284C8.92933 32.0284 9.18075 31.9759 9.41371 31.8707C9.64666 31.7628 9.84979 31.6165 10.0231 31.4318C10.1992 31.2443 10.337 31.0327 10.4364 30.7969C10.5359 30.5582 10.5856 30.3097 10.5856 30.0511C10.5856 29.7102 10.5032 29.3906 10.3384 29.0923C10.1765 28.794 9.95206 28.5526 9.66513 28.3679C9.38104 28.1832 9.05717 28.0909 8.69354 28.0909ZM16.25 36.1193C15.608 36.1193 15.0611 35.9446 14.6094 35.5952C14.1577 35.2429 13.8125 34.733 13.5739 34.0653C13.3352 33.3949 13.2159 32.5852 13.2159 31.6364C13.2159 30.6932 13.3352 29.8878 13.5739 29.2202C13.8153 28.5497 14.1619 28.0384 14.6136 27.6861C15.0682 27.331 15.6136 27.1534 16.25 27.1534C16.8864 27.1534 17.4304 27.331 17.8821 27.6861C18.3366 28.0384 18.6832 28.5497 18.9219 29.2202C19.1634 29.8878 19.2841 30.6932 19.2841 31.6364C19.2841 32.5852 19.1648 33.3949 18.9261 34.0653C18.6875 34.733 18.3423 35.2429 17.8906 35.5952C17.4389 35.9446 16.892 36.1193 16.25 36.1193ZM16.25 35.1818C16.8864 35.1818 17.3807 34.875 17.733 34.2614C18.0852 33.6477 18.2614 32.7727 18.2614 31.6364C18.2614 30.8807 18.1804 30.2372 18.0185 29.706C17.8594 29.1747 17.6293 28.7699 17.3281 28.4915C17.0298 28.2131 16.6705 28.0739 16.25 28.0739C15.6193 28.0739 15.1264 28.3849 14.7713 29.0071C14.4162 29.6264 14.2386 30.5028 14.2386 31.6364C14.2386 32.392 14.3182 33.0341 14.4773 33.5625C14.6364 34.0909 14.8651 34.4929 15.1634 34.7685C15.4645 35.044 15.8267 35.1818 16.25 35.1818Z" fill="#4F4F4F"/>
<path d="M3.39347 0.272727V9H2.33665V1.38068H2.28551L0.15483 2.79545V1.72159L2.33665 0.272727H3.39347ZM8.75 9.11932C8.10795 9.11932 7.56108 8.9446 7.10938 8.59517C6.65767 8.2429 6.3125 7.73295 6.07386 7.06534C5.83523 6.39489 5.71591 5.58523 5.71591 4.63636C5.71591 3.69318 5.83523 2.88778 6.07386 2.22017C6.31534 1.54972 6.66193 1.03835 7.11364 0.686079C7.56818 0.330966 8.11364 0.153409 8.75 0.153409C9.38636 0.153409 9.9304 0.330966 10.3821 0.686079C10.8366 1.03835 11.1832 1.54972 11.4219 2.22017C11.6634 2.88778 11.7841 3.69318 11.7841 4.63636C11.7841 5.58523 11.6648 6.39489 11.4261 7.06534C11.1875 7.73295 10.8423 8.2429 10.3906 8.59517C9.93892 8.9446 9.39205 9.11932 8.75 9.11932ZM8.75 8.18182C9.38636 8.18182 9.88068 7.875 10.233 7.26136C10.5852 6.64773 10.7614 5.77273 10.7614 4.63636C10.7614 3.88068 10.6804 3.23722 10.5185 2.70597C10.3594 2.17472 10.1293 1.76989 9.82812 1.49148C9.52983 1.21307 9.17045 1.07386 8.75 1.07386C8.11932 1.07386 7.62642 1.38494 7.27131 2.0071C6.91619 2.62642 6.73864 3.50284 6.73864 4.63636C6.73864 5.39205 6.81818 6.03409 6.97727 6.5625C7.13636 7.09091 7.36506 7.4929 7.66335 7.76847C7.96449 8.04403 8.3267 8.18182 8.75 8.18182ZM16.25 9.11932C15.608 9.11932 15.0611 8.9446 14.6094 8.59517C14.1577 8.2429 13.8125 7.73295 13.5739 7.06534C13.3352 6.39489 13.2159 5.58523 13.2159 4.63636C13.2159 3.69318 13.3352 2.88778 13.5739 2.22017C13.8153 1.54972 14.1619 1.03835 14.6136 0.686079C15.0682 0.330966 15.6136 0.153409 16.25 0.153409C16.8864 0.153409 17.4304 0.330966 17.8821 0.686079C18.3366 1.03835 18.6832 1.54972 18.9219 2.22017C19.1634 2.88778 19.2841 3.69318 19.2841 4.63636C19.2841 5.58523 19.1648 6.39489 18.9261 7.06534C18.6875 7.73295 18.3423 8.2429 17.8906 8.59517C17.4389 8.9446 16.892 9.11932 16.25 9.11932ZM16.25 8.18182C16.8864 8.18182 17.3807 7.875 17.733 7.26136C18.0852 6.64773 18.2614 5.77273 18.2614 4.63636C18.2614 3.88068 18.1804 3.23722 18.0185 2.70597C17.8594 2.17472 17.6293 1.76989 17.3281 1.49148C17.0298 1.21307 16.6705 1.07386 16.25 1.07386C15.6193 1.07386 15.1264 1.38494 14.7713 2.0071C14.4162 2.62642 14.2386 3.50284 14.2386 4.63636C14.2386 5.39205 14.3182 6.03409 14.4773 6.5625C14.6364 7.09091 14.8651 7.4929 15.1634 7.76847C15.4645 8.04403 15.8267 8.18182 16.25 8.18182Z" fill="#4F4F4F"/>
<path d="M37.7077 181.727H38.5884V186.926C38.5884 187.39 38.5032 187.784 38.3327 188.109C38.1623 188.433 37.922 188.679 37.6119 188.847C37.3017 189.015 36.936 189.099 36.5146 189.099C36.1168 189.099 35.7629 189.027 35.4528 188.883C35.1426 188.736 34.8988 188.528 34.7212 188.258C34.5437 187.988 34.4549 187.667 34.4549 187.295H35.3214C35.3214 187.501 35.3723 187.681 35.4741 187.835C35.5782 187.987 35.7203 188.105 35.9002 188.19C36.0801 188.276 36.2849 188.318 36.5146 188.318C36.7679 188.318 36.9833 188.265 37.1609 188.158C37.3384 188.052 37.4734 187.896 37.5657 187.69C37.6604 187.481 37.7077 187.227 37.7077 186.926V181.727ZM41.8448 189.128C41.4992 189.128 41.1855 189.063 40.9038 188.933C40.622 188.8 40.3983 188.609 40.2326 188.361C40.0669 188.11 39.984 187.807 39.984 187.452C39.984 187.139 40.0456 186.886 40.1687 186.692C40.2918 186.495 40.4563 186.341 40.6623 186.23C40.8683 186.119 41.0955 186.036 41.3441 185.982C41.5951 185.925 41.8472 185.88 42.1005 185.847C42.4319 185.804 42.7006 185.772 42.9066 185.751C43.1149 185.727 43.2665 185.688 43.3612 185.634C43.4582 185.579 43.5067 185.484 43.5067 185.349V185.321C43.5067 184.971 43.4109 184.698 43.2191 184.504C43.0297 184.31 42.7421 184.213 42.3562 184.213C41.9561 184.213 41.6424 184.301 41.4151 184.476C41.1879 184.651 41.0281 184.838 40.9357 185.037L40.1403 184.753C40.2823 184.421 40.4717 184.163 40.7085 183.979C40.9476 183.792 41.208 183.661 41.4897 183.588C41.7738 183.512 42.0531 183.474 42.3278 183.474C42.503 183.474 42.7042 183.496 42.9315 183.538C43.1611 183.579 43.3825 183.663 43.5955 183.79C43.811 183.918 43.9897 184.111 44.1317 184.369C44.2738 184.627 44.3448 184.973 44.3448 185.406V189H43.5067V188.261H43.4641C43.4073 188.38 43.3126 188.506 43.18 188.641C43.0475 188.776 42.8711 188.891 42.6509 188.986C42.4308 189.08 42.1621 189.128 41.8448 189.128ZM41.9727 188.375C42.3041 188.375 42.5835 188.31 42.8107 188.18C43.0404 188.049 43.2132 187.881 43.3292 187.675C43.4476 187.469 43.5067 187.253 43.5067 187.026V186.259C43.4712 186.301 43.3931 186.34 43.2724 186.376C43.154 186.409 43.0167 186.438 42.8604 186.464C42.7066 186.488 42.5562 186.509 42.4094 186.528C42.265 186.545 42.1478 186.559 42.0579 186.571C41.8401 186.599 41.6365 186.646 41.4471 186.71C41.2601 186.771 41.1085 186.865 40.9925 186.99C40.8789 187.113 40.8221 187.281 40.8221 187.494C40.8221 187.786 40.9298 188.006 41.1452 188.155C41.363 188.302 41.6388 188.375 41.9727 188.375ZM46.7125 185.719V189H45.8745V183.545H46.6841V184.398H46.7551C46.883 184.121 47.0771 183.898 47.3375 183.73C47.598 183.56 47.9341 183.474 48.3461 183.474C48.7154 183.474 49.0385 183.55 49.3155 183.702C49.5925 183.851 49.8079 184.078 49.9618 184.384C50.1157 184.687 50.1926 185.07 50.1926 185.534V189H49.3546V185.591C49.3546 185.162 49.2433 184.829 49.0208 184.589C48.7982 184.348 48.4928 184.227 48.1046 184.227C47.8371 184.227 47.598 184.285 47.3873 184.401C47.1789 184.517 47.0144 184.687 46.8936 184.909C46.7729 185.132 46.7125 185.402 46.7125 185.719Z" fill="#4F4F4F"/>
<path d="M85.6307 189V181.727H89.9915V182.509H86.5114V184.966H89.6648V185.747H86.5114V189H85.6307ZM93.2727 189.114C92.7472 189.114 92.2938 188.998 91.9126 188.766C91.5339 188.531 91.2415 188.205 91.0355 187.786C90.8319 187.364 90.7301 186.874 90.7301 186.315C90.7301 185.757 90.8319 185.264 91.0355 184.838C91.2415 184.41 91.5279 184.076 91.8949 183.837C92.2642 183.595 92.6951 183.474 93.1875 183.474C93.4716 183.474 93.7521 183.522 94.0291 183.616C94.3061 183.711 94.5582 183.865 94.7855 184.078C95.0128 184.289 95.1939 184.568 95.3288 184.916C95.4638 185.264 95.5312 185.693 95.5312 186.202V186.557H91.3267V185.832H94.679C94.679 185.525 94.6174 185.25 94.4943 185.009C94.3736 184.767 94.2008 184.576 93.9759 184.437C93.7533 184.297 93.4905 184.227 93.1875 184.227C92.8537 184.227 92.5649 184.31 92.321 184.476C92.0795 184.639 91.8937 184.852 91.7635 185.115C91.6333 185.378 91.5682 185.66 91.5682 185.96V186.443C91.5682 186.855 91.6392 187.204 91.7812 187.491C91.9257 187.775 92.1257 187.991 92.3814 188.141C92.6371 188.287 92.9342 188.361 93.2727 188.361C93.4929 188.361 93.6918 188.33 93.8693 188.268C94.0492 188.205 94.2043 188.11 94.3345 187.984C94.4647 187.857 94.5653 187.698 94.6364 187.509L95.446 187.736C95.3608 188.01 95.2176 188.252 95.0163 188.46C94.8151 188.666 94.5665 188.827 94.2706 188.943C93.9747 189.057 93.642 189.114 93.2727 189.114ZM96.9197 189V181.727H97.7578V184.412H97.8288C97.8904 184.317 97.9756 184.196 98.0845 184.05C98.1958 183.901 98.3544 183.768 98.5604 183.652C98.7687 183.534 99.0504 183.474 99.4055 183.474C99.8648 183.474 100.27 183.589 100.62 183.819C100.97 184.049 101.244 184.374 101.44 184.795C101.637 185.217 101.735 185.714 101.735 186.287C101.735 186.865 101.637 187.365 101.44 187.789C101.244 188.21 100.972 188.537 100.624 188.769C100.276 188.999 99.8743 189.114 99.4197 189.114C99.0694 189.114 98.7888 189.056 98.5781 188.94C98.3674 188.821 98.2053 188.687 98.0916 188.538C97.978 188.387 97.8904 188.261 97.8288 188.162H97.7294V189H96.9197ZM97.7436 186.273C97.7436 186.685 97.804 187.048 97.9247 187.363C98.0455 187.675 98.2218 187.92 98.4538 188.098C98.6858 188.273 98.9699 188.361 99.3061 188.361C99.6565 188.361 99.9489 188.268 100.183 188.084C100.42 187.897 100.598 187.646 100.716 187.331C100.837 187.014 100.897 186.661 100.897 186.273C100.897 185.889 100.838 185.544 100.719 185.236C100.603 184.926 100.427 184.681 100.19 184.501C99.956 184.318 99.6612 184.227 99.3061 184.227C98.9652 184.227 98.6787 184.314 98.4467 184.487C98.2147 184.657 98.0395 184.896 97.9212 185.204C97.8028 185.509 97.7436 185.866 97.7436 186.273Z" fill="#4F4F4F"/>
<path d="M129.255 181.727H130.306L132.777 187.764H132.863L135.334 181.727H136.385V189H135.562V183.474H135.491L133.218 189H132.422L130.15 183.474H130.079V189H129.255V181.727ZM139.643 189.128C139.297 189.128 138.983 189.063 138.702 188.933C138.42 188.8 138.196 188.609 138.03 188.361C137.865 188.11 137.782 187.807 137.782 187.452C137.782 187.139 137.843 186.886 137.967 186.692C138.09 186.495 138.254 186.341 138.46 186.23C138.666 186.119 138.893 186.036 139.142 185.982C139.393 185.925 139.645 185.88 139.898 185.847C140.23 185.804 140.498 185.772 140.704 185.751C140.913 185.727 141.064 185.688 141.159 185.634C141.256 185.579 141.305 185.484 141.305 185.349V185.321C141.305 184.971 141.209 184.698 141.017 184.504C140.828 184.31 140.54 184.213 140.154 184.213C139.754 184.213 139.44 184.301 139.213 184.476C138.986 184.651 138.826 184.838 138.734 185.037L137.938 184.753C138.08 184.421 138.27 184.163 138.506 183.979C138.745 183.792 139.006 183.661 139.288 183.588C139.572 183.512 139.851 183.474 140.126 183.474C140.301 183.474 140.502 183.496 140.729 183.538C140.959 183.579 141.18 183.663 141.393 183.79C141.609 183.918 141.788 184.111 141.93 184.369C142.072 184.627 142.143 184.973 142.143 185.406V189H141.305V188.261H141.262C141.205 188.38 141.11 188.506 140.978 188.641C140.845 188.776 140.669 188.891 140.449 188.986C140.229 189.08 139.96 189.128 139.643 189.128ZM139.771 188.375C140.102 188.375 140.381 188.31 140.609 188.18C140.838 188.049 141.011 187.881 141.127 187.675C141.245 187.469 141.305 187.253 141.305 187.026V186.259C141.269 186.301 141.191 186.34 141.07 186.376C140.952 186.409 140.815 186.438 140.658 186.464C140.504 186.488 140.354 186.509 140.207 186.528C140.063 186.545 139.946 186.559 139.856 186.571C139.638 186.599 139.434 186.646 139.245 186.71C139.058 186.771 138.906 186.865 138.79 186.99C138.677 187.113 138.62 187.281 138.62 187.494C138.62 187.786 138.728 188.006 138.943 188.155C139.161 188.302 139.437 188.375 139.771 188.375ZM143.672 189V183.545H144.482V184.369H144.539C144.638 184.099 144.818 183.88 145.079 183.712C145.339 183.544 145.633 183.46 145.959 183.46C146.021 183.46 146.098 183.461 146.19 183.464C146.282 183.466 146.352 183.47 146.4 183.474V184.327C146.371 184.32 146.306 184.309 146.204 184.295C146.105 184.278 145.999 184.27 145.888 184.27C145.623 184.27 145.386 184.326 145.178 184.437C144.972 184.546 144.809 184.697 144.688 184.891C144.57 185.083 144.51 185.302 144.51 185.548V189H143.672Z" fill="#4F4F4F"/>
<path d="M173.393 189H172.47L175.14 181.727H176.049L178.72 189H177.796L175.623 182.878H175.566L173.393 189ZM173.734 186.159H177.455V186.94H173.734V186.159ZM179.739 191.045V183.545H180.548V184.412H180.648C180.709 184.317 180.795 184.196 180.903 184.05C181.015 183.901 181.173 183.768 181.379 183.652C181.588 183.534 181.869 183.474 182.225 183.474C182.684 183.474 183.089 183.589 183.439 183.819C183.789 184.049 184.063 184.374 184.259 184.795C184.456 185.217 184.554 185.714 184.554 186.287C184.554 186.865 184.456 187.365 184.259 187.789C184.063 188.21 183.791 188.537 183.443 188.769C183.095 188.999 182.693 189.114 182.239 189.114C181.888 189.114 181.608 189.056 181.397 188.94C181.186 188.821 181.024 188.687 180.911 188.538C180.797 188.387 180.709 188.261 180.648 188.162H180.577V191.045H179.739ZM180.563 186.273C180.563 186.685 180.623 187.048 180.744 187.363C180.864 187.675 181.041 187.92 181.273 188.098C181.505 188.273 181.789 188.361 182.125 188.361C182.475 188.361 182.768 188.268 183.002 188.084C183.239 187.897 183.417 187.646 183.535 187.331C183.656 187.014 183.716 186.661 183.716 186.273C183.716 185.889 183.657 185.544 183.538 185.236C183.422 184.926 183.246 184.681 183.009 184.501C182.775 184.318 182.48 184.227 182.125 184.227C181.784 184.227 181.498 184.314 181.266 184.487C181.034 184.657 180.859 184.896 180.74 185.204C180.622 185.509 180.563 185.866 180.563 186.273ZM185.832 189V183.545H186.642V184.369H186.699C186.798 184.099 186.978 183.88 187.239 183.712C187.499 183.544 187.793 183.46 188.119 183.46C188.181 183.46 188.258 183.461 188.35 183.464C188.443 183.466 188.512 183.47 188.56 183.474V184.327C188.531 184.32 188.466 184.309 188.364 184.295C188.265 184.278 188.16 184.27 188.048 184.27C187.783 184.27 187.546 184.326 187.338 184.437C187.132 184.546 186.969 184.697 186.848 184.891C186.73 185.083 186.671 185.302 186.671 185.548V189H185.832Z" fill="#4F4F4F"/>
<path d="M214.43 181.727H215.481L217.952 187.764H218.037L220.509 181.727H221.56V189H220.736V183.474H220.665L218.393 189H217.597L215.324 183.474H215.253V189H214.43V181.727ZM224.817 189.128C224.472 189.128 224.158 189.063 223.876 188.933C223.595 188.8 223.371 188.609 223.205 188.361C223.04 188.11 222.957 187.807 222.957 187.452C222.957 187.139 223.018 186.886 223.141 186.692C223.264 186.495 223.429 186.341 223.635 186.23C223.841 186.119 224.068 186.036 224.317 185.982C224.568 185.925 224.82 185.88 225.073 185.847C225.405 185.804 225.673 185.772 225.879 185.751C226.088 185.727 226.239 185.688 226.334 185.634C226.431 185.579 226.479 185.484 226.479 185.349V185.321C226.479 184.971 226.384 184.698 226.192 184.504C226.002 184.31 225.715 184.213 225.329 184.213C224.929 184.213 224.615 184.301 224.388 184.476C224.161 184.651 224.001 184.838 223.908 185.037L223.113 184.753C223.255 184.421 223.444 184.163 223.681 183.979C223.92 183.792 224.181 183.661 224.462 183.588C224.746 183.512 225.026 183.474 225.3 183.474C225.476 183.474 225.677 183.496 225.904 183.538C226.134 183.579 226.355 183.663 226.568 183.79C226.784 183.918 226.962 184.111 227.104 184.369C227.246 184.627 227.317 184.973 227.317 185.406V189H226.479V188.261H226.437C226.38 188.38 226.285 188.506 226.153 188.641C226.02 188.776 225.844 188.891 225.624 188.986C225.403 189.08 225.135 189.128 224.817 189.128ZM224.945 188.375C225.277 188.375 225.556 188.31 225.783 188.18C226.013 188.049 226.186 187.881 226.302 187.675C226.42 187.469 226.479 187.253 226.479 187.026V186.259C226.444 186.301 226.366 186.34 226.245 186.376C226.127 186.409 225.989 186.438 225.833 186.464C225.679 186.488 225.529 186.509 225.382 186.528C225.238 186.545 225.121 186.559 225.031 186.571C224.813 186.599 224.609 186.646 224.42 186.71C224.233 186.771 224.081 186.865 223.965 186.99C223.852 187.113 223.795 187.281 223.795 187.494C223.795 187.786 223.902 188.006 224.118 188.155C224.336 188.302 224.612 188.375 224.945 188.375ZM229.192 191.045C229.05 191.045 228.923 191.034 228.812 191.01C228.7 190.989 228.623 190.967 228.581 190.946L228.794 190.207C228.997 190.259 229.177 190.278 229.334 190.264C229.49 190.25 229.628 190.18 229.749 190.055C229.872 189.932 229.985 189.732 230.086 189.455L230.243 189.028L228.226 183.545H229.135L230.64 187.892H230.697L232.203 183.545H233.112L230.797 189.795C230.693 190.077 230.564 190.31 230.41 190.495C230.256 190.682 230.077 190.821 229.873 190.911C229.672 191 229.445 191.045 229.192 191.045Z" fill="#4F4F4F"/>
<path d="M263.62 181.727H264.501V186.926C264.501 187.39 264.415 187.784 264.245 188.109C264.074 188.433 263.834 188.679 263.524 188.847C263.214 189.015 262.848 189.099 262.427 189.099C262.029 189.099 261.675 189.027 261.365 188.883C261.055 188.736 260.811 188.528 260.633 188.258C260.456 187.988 260.367 187.667 260.367 187.295H261.233C261.233 187.501 261.284 187.681 261.386 187.835C261.49 187.987 261.632 188.105 261.812 188.19C261.992 188.276 262.197 188.318 262.427 188.318C262.68 188.318 262.895 188.265 263.073 188.158C263.251 188.052 263.385 187.896 263.478 187.69C263.573 187.481 263.62 187.227 263.62 186.926V181.727ZM269.589 186.77V183.545H270.427V189H269.589V188.077H269.532C269.405 188.354 269.206 188.589 268.936 188.783C268.666 188.975 268.325 189.071 267.913 189.071C267.572 189.071 267.269 188.996 267.004 188.847C266.739 188.696 266.531 188.469 266.379 188.165C266.228 187.86 266.152 187.475 266.152 187.011V183.545H266.99V186.955C266.99 187.352 267.101 187.67 267.324 187.906C267.549 188.143 267.835 188.261 268.183 188.261C268.391 188.261 268.603 188.208 268.819 188.102C269.037 187.995 269.219 187.832 269.366 187.612C269.515 187.391 269.589 187.111 269.589 186.77ZM272.8 185.719V189H271.962V183.545H272.772V184.398H272.843C272.971 184.121 273.165 183.898 273.425 183.73C273.686 183.56 274.022 183.474 274.434 183.474C274.803 183.474 275.126 183.55 275.403 183.702C275.68 183.851 275.896 184.078 276.05 184.384C276.204 184.687 276.281 185.07 276.281 185.534V189H275.442V185.591C275.442 185.162 275.331 184.829 275.109 184.589C274.886 184.348 274.581 184.227 274.192 184.227C273.925 184.227 273.686 184.285 273.475 184.401C273.267 184.517 273.102 184.687 272.982 184.909C272.861 185.132 272.8 185.402 272.8 185.719Z" fill="#4F4F4F"/>
<rect x="30.5945" y="6.5" width="248.905" height="166" stroke="white" stroke-opacity="0.1"/>
<path d="M30.0945 61H280" stroke="white" stroke-opacity="0.1"/>
<path d="M30.0945 34H280" stroke="white" stroke-opacity="0.1"/>
<path d="M30.0945 88H280" stroke="white" stroke-opacity="0.1"/>
<path d="M30.0945 115H280" stroke="white" stroke-opacity="0.1"/>
<path d="M30.0945 142H280" stroke="white" stroke-opacity="0.1"/>
<path d="M72.1348 6L72.1348 173" stroke="white" stroke-opacity="0.1"/>
<path d="M113.396 6L113.396 173" stroke="white" stroke-opacity="0.1"/>
<path d="M154.658 6L154.658 173" stroke="white" stroke-opacity="0.1"/>
<path d="M195.92 6L195.92 173" stroke="white" stroke-opacity="0.1"/>
<path d="M237.181 6L237.181 173" stroke="white" stroke-opacity="0.1"/>
<path d="M30.0945 128L72.7899 100L113.919 128L155.439 20L196.959 73L238.48 46.5L280 128" stroke="#01B4D2" stroke-width="2"/>
<path d="M30.0945 72.5L72.3982 47L113.527 72.5L154.656 101L196.568 129L238.088 101L280 72.5" stroke="#52C41A" stroke-width="2"/>
<path d="M31.0032 101L71.8481 128.235L113.478 101L155.109 128.235L196.739 159L238.37 128.235L280 101" stroke="#FD0000" stroke-width="2"/>
</svg>
